# xmcd CD database file
#
# Track frame offsets:
#	150
#	19427
#	42107
#	61635
#	82880
#	100055
#	119895
#	153525
#
# Disc length: 2318 seconds
#
# Revision: 2
# Processed by: cddbd v1.5PL3 Copyright (c) Steve Scherf et al.
# Submitted via: CDex 1.51
#
DISCID=5f090c08
DTITLE=Loudness - Eurobounds(Remastered)
DYEAR=1900
DGENRE=Heavy Metal
TTITLE0=Crazy Doctor
TTITLE1=Lonely Player
TTITLE2=Milky Way
TTITLE3=Dream Fantasy
TTITLE4=In The Mirror
TTITLE5=Esper
TTITLE6=Speed
TTITLE7=Loudness
EXTD=
EXTT0=
EXTT1=
EXTT2=
EXTT3=
EXTT4=
EXTT5=
EXTT6=
EXTT7=
PLAYORDER=
